<mxfile host="app.diagrams.net" agent="Mozilla/5.0 (Windows NT 10.0; Win64; x64) AppleWebKit/537.36 (KHTML, like Gecko) Chrome/137.0.0.0 Safari/537.36" version="27.1.4">
  <diagram name="Página-1" id="mex9svAnYJlCm5_gZepl">
    <mxGraphModel dx="872" dy="431" grid="1" gridSize="10" guides="1" tooltips="1" connect="1" arrows="1" fold="1" page="1" pageScale="1" pageWidth="827" pageHeight="1169" math="0" shadow="0">
      <root>
        <mxCell id="0" />
        <mxCell id="1" parent="0" />
        <mxCell id="HbiZTkWc_Sp9W7nxrUGF-8" style="rounded=0;orthogonalLoop=1;jettySize=auto;html=1;exitX=0.5;exitY=0.5;exitDx=0;exitDy=0;exitPerimeter=0;entryX=0;entryY=0.5;entryDx=0;entryDy=0;" edge="1" parent="1" source="HbiZTkWc_Sp9W7nxrUGF-1" target="HbiZTkWc_Sp9W7nxrUGF-2">
          <mxGeometry relative="1" as="geometry" />
        </mxCell>
        <mxCell id="HbiZTkWc_Sp9W7nxrUGF-9" style="rounded=0;orthogonalLoop=1;jettySize=auto;html=1;exitX=0.5;exitY=0.5;exitDx=0;exitDy=0;exitPerimeter=0;entryX=0;entryY=0.5;entryDx=0;entryDy=0;" edge="1" parent="1" source="HbiZTkWc_Sp9W7nxrUGF-1" target="HbiZTkWc_Sp9W7nxrUGF-3">
          <mxGeometry relative="1" as="geometry" />
        </mxCell>
        <mxCell id="HbiZTkWc_Sp9W7nxrUGF-10" style="rounded=0;orthogonalLoop=1;jettySize=auto;html=1;exitX=0.5;exitY=0.5;exitDx=0;exitDy=0;exitPerimeter=0;entryX=0;entryY=0.5;entryDx=0;entryDy=0;" edge="1" parent="1" source="HbiZTkWc_Sp9W7nxrUGF-1" target="HbiZTkWc_Sp9W7nxrUGF-4">
          <mxGeometry relative="1" as="geometry" />
        </mxCell>
        <mxCell id="HbiZTkWc_Sp9W7nxrUGF-1" value="Actor" style="shape=umlActor;verticalLabelPosition=bottom;verticalAlign=top;html=1;outlineConnect=0;" vertex="1" parent="1">
          <mxGeometry x="150" y="230" width="30" height="60" as="geometry" />
        </mxCell>
        <mxCell id="HbiZTkWc_Sp9W7nxrUGF-2" value="Registrarse" style="rounded=0;whiteSpace=wrap;html=1;" vertex="1" parent="1">
          <mxGeometry x="240" y="140" width="120" height="60" as="geometry" />
        </mxCell>
        <mxCell id="HbiZTkWc_Sp9W7nxrUGF-3" value="Iniciar sesión" style="rounded=0;whiteSpace=wrap;html=1;" vertex="1" parent="1">
          <mxGeometry x="240" y="210" width="120" height="60" as="geometry" />
        </mxCell>
        <mxCell id="HbiZTkWc_Sp9W7nxrUGF-12" style="edgeStyle=orthogonalEdgeStyle;rounded=0;orthogonalLoop=1;jettySize=auto;html=1;exitX=1;exitY=0.5;exitDx=0;exitDy=0;entryX=0;entryY=0.5;entryDx=0;entryDy=0;" edge="1" parent="1" source="HbiZTkWc_Sp9W7nxrUGF-4" target="HbiZTkWc_Sp9W7nxrUGF-5">
          <mxGeometry relative="1" as="geometry" />
        </mxCell>
        <mxCell id="HbiZTkWc_Sp9W7nxrUGF-4" value="Crear Card" style="rounded=0;whiteSpace=wrap;html=1;" vertex="1" parent="1">
          <mxGeometry x="240" y="280" width="120" height="60" as="geometry" />
        </mxCell>
        <mxCell id="HbiZTkWc_Sp9W7nxrUGF-13" style="edgeStyle=orthogonalEdgeStyle;rounded=0;orthogonalLoop=1;jettySize=auto;html=1;exitX=1;exitY=0.5;exitDx=0;exitDy=0;entryX=0;entryY=0.5;entryDx=0;entryDy=0;" edge="1" parent="1" source="HbiZTkWc_Sp9W7nxrUGF-5" target="HbiZTkWc_Sp9W7nxrUGF-7">
          <mxGeometry relative="1" as="geometry" />
        </mxCell>
        <mxCell id="HbiZTkWc_Sp9W7nxrUGF-5" value="Ver Tabla asociada" style="rounded=0;whiteSpace=wrap;html=1;" vertex="1" parent="1">
          <mxGeometry x="380" y="280" width="120" height="60" as="geometry" />
        </mxCell>
        <mxCell id="HbiZTkWc_Sp9W7nxrUGF-14" style="edgeStyle=orthogonalEdgeStyle;rounded=0;orthogonalLoop=1;jettySize=auto;html=1;exitX=1;exitY=0.5;exitDx=0;exitDy=0;entryX=0;entryY=0.5;entryDx=0;entryDy=0;" edge="1" parent="1" source="HbiZTkWc_Sp9W7nxrUGF-7" target="HbiZTkWc_Sp9W7nxrUGF-11">
          <mxGeometry relative="1" as="geometry" />
        </mxCell>
        <mxCell id="HbiZTkWc_Sp9W7nxrUGF-7" value="Agregar/Editar/&lt;div&gt;Eliminar filas&lt;/div&gt;" style="rounded=0;whiteSpace=wrap;html=1;" vertex="1" parent="1">
          <mxGeometry x="520" y="280" width="120" height="60" as="geometry" />
        </mxCell>
        <mxCell id="HbiZTkWc_Sp9W7nxrUGF-11" value="Cambios en tiempo real" style="rounded=0;whiteSpace=wrap;html=1;" vertex="1" parent="1">
          <mxGeometry x="660" y="280" width="120" height="60" as="geometry" />
        </mxCell>
      </root>
    </mxGraphModel>
  </diagram>
</mxfile>
